[img]http://img94.imageshack.us/img94/3459/greency.jpg[/img]
[code]      
Green Lantern 2011 TS V2 READNFO XViD - IMAGiNE

Ripper ...........: IMAGiNE                                 IMDB Rating.......:6.2/10                             
Video Codec.......: XVID                                    Release Date......:02/08/11
Audio Codec.......: MP3                                     Theatre Date......:17/06/11
Audio Bitrate.....: 128                                     Runtime.......:1h 47mn
Subtitles.........: ENG WHEN NEEDED                         Language..........:ENGLISH
Resolution......: 720 x 304                                 IMDb URL.......... http://www.imdb.com/title/tt1133985/

DETAILS:


Video
ID                               : 0
Format                           : MPEG-4 Visual
Format profile                   : Advanced Simple@L5
Format settings, BVOP            : 2
Format settings, QPel            : No
Format settings, GMC             : No warppoints
Format settings, Matrix          : Default (MPEG)
Muxing mode                      : Packed bitstream
Codec ID                         : XVID
Codec ID/Hint                    : XviD
Duration                         : 1h 47mn
Bit rate                         : 1 696 Kbps
Width                            : 720 pixels
Height                           : 304 pixels
Display aspect ratio             : 2.35:1
Frame rate                       : 25.000 fps
Color space                      : YUV
Chroma subsampling               : 4:2:0
Bit depth                        : 8 bits
Scan type                        : Progressive
Compression mode                 : Lossy
Bits/(Pixel*Frame)               : 0.310
Stream size                      : 1.27 GiB (92%)
Writing library                  : XviD 64

Audio
ID                               : 1
Format                           : MPEG Audio
Format version                   : Version 1
Format profile                   : Layer 3
Mode                             : Joint stereo
Mode extension                   : MS Stereo
Codec ID                         : 55
Codec ID/Hint                    : MP3
Duration                         : 1h 47mn
Bit rate mode                    : Constant
Bit rate                         : 128 Kbps
Channel(s)                       : 2 channels
Sampling rate                    : 44.1 KHz
Compression mode                 : Lossy
Stream size                      : 98.0 MiB (7%)
Alignment                        : Split accross interleaves
Interleave, duration             : 40 ms (1.00 video frame)

Plot:
A test pilot is granted a mystical green ring that bestows him with otherworldly powers, as well as membership into an intergalactic squadron tasked with keeping peace within the universe.

SOURCES:
VIDEO: ............. Green.Lantern.TS.LD.German.XviD-FLOPPYDiSK Thanks m8ty
AUDIO: ............. Thanks m8ty

NOTES:
IMAGiNE bringing you another release..........
Green Lantern V2 TS........
Ok heres our second go at Green Lantern.....
First off we made a script to sharpen then we restored the whitebalance and made the black true again,which threw some of the other colors out a bit so we filtered the rgb to bring it all back in Subs hardcoded in yellow english when needed Overall very nice video but has a slight flicker and occasional second missing here and there..... 

Audio is nice LiNE we filtered synced and muxed to our encode Enjoy folks BTW end scene included after the credits 
[/code]
Screens:
[img]http://img534.imageshack.us/img534/1318/85827013.png[/img]
[img]http://img198.imageshack.us/img198/6753/30701267.png[/img]
[img]http://img171.imageshack.us/img171/6113/79838281.png[/img]
[img]http://img7.imageshack.us/img7/4026/89520923.png[/img]
[img]http://img818.imageshack.us/img818/9708/59431368.png[/img]
[img]http://img233.imageshack.us/img233/9966/71410576.png[/img]